<svg width="85" height="85" viewBox="0 0 85 85" fill="none" xmlns="http://www.w3.org/2000/svg">
<path d="M22.792 69.2031C34.8273 75.225 49.4656 70.35 55.4874 58.3147C61.5093 46.2793 56.6343 31.641 44.599 25.6192C32.5636 19.5974 17.9253 24.4723 11.9035 36.5077C5.88165 48.543 10.7566 63.1813 22.792 69.2031Z" fill="white"/>
<path d="M65.1789 28.6418C70.6218 31.3651 77.242 29.1605 79.9653 23.7175C82.6887 18.2745 80.484 11.6544 75.041 8.93107C69.5981 6.20772 62.978 8.41239 60.2546 13.8554C57.5312 19.2983 59.7359 25.9184 65.1789 28.6418Z" fill="#F2BFAF" stroke="#2D2D2D" stroke-width="2" stroke-miterlimit="10"/>
<path d="M26.7438 70.7347C27.6496 69.6713 28.4231 68.502 29.0474 67.2525C31.0989 63.1523 31.4376 58.4051 29.9889 54.0552C28.5403 49.7053 25.423 46.109 21.3228 44.0575C17.7814 42.2772 13.7336 41.7751 9.86452 42.636" stroke="#F8D57E" stroke-width="2" stroke-miterlimit="10"/>
<path d="M42.2108 24.0897C40.9402 25.3532 39.8842 26.8154 39.0843 28.4187C37.1212 32.3422 36.7966 36.8848 38.1819 41.0475C39.5672 45.2103 42.5489 48.6525 46.4716 50.6173C49.9202 52.3497 53.8679 52.8152 57.6248 51.9324" stroke="#F8D57E" stroke-width="2" stroke-miterlimit="10"/>
<path d="M29.1803 66.3328L26.6803 70.3328L19.6803 66.3328L14.6803 62.3328L10.6803 55.8328L9.1803 49.3328L10.1803 42.8328H14.6803L20.6803 43.8328L27.1803 48.8328L29.1803 53.8328L30.6803 59.8328L29.1803 66.3328Z" fill="#F8D57E"/>
<path d="M39.8814 27.9311L42.665 24.123L49.3563 28.6204L54.0529 32.9726L57.5708 39.7457L58.5952 46.3374L57.1262 52.7478L52.638 52.4212L46.7264 50.9885L40.6063 45.5301L37.9137 39.7457L37.9137 34.3051L39.8814 27.9311Z" fill="#F8D57E"/>
<path d="M22.792 69.2031C34.8273 75.225 49.4656 70.35 55.4874 58.3147C61.5093 46.2793 56.6343 31.641 44.599 25.6192C32.5636 19.5974 17.9253 24.4723 11.9035 36.5077C5.88165 48.543 10.7566 63.1813 22.792 69.2031Z" stroke="#2D2D2D" stroke-width="2" stroke-miterlimit="10"/>
</svg>
