<svg width="85" height="85" viewBox="0 0 85 85" fill="none" xmlns="http://www.w3.org/2000/svg">
<path d="M36 45L39 48.5L33.5 54L36 56L32 58L29.5 56H25L21.5 59.5V63.5L23.5 67L21.5 70L17 63.5L18 58L21.5 54L36 45Z" fill="#009379"/>
<path d="M37.5 59L36 55.5L32.5 57.5V60.5V64.5L30.5 66.5H27L24 66L21.5 69.5L25 71H30.5L34.5 68.5L37 64.5L37.5 59Z" fill="#009379"/>
<path d="M24.0227 52.2069L42.5673 40.7039V35.0849L72.4662 20.4587L33.7217 53.3644" stroke="#2D2D2D" stroke-width="2" stroke-linecap="round" stroke-linejoin="round"/>
<path d="M24.0551 52.2781C22.175 53.041 20.5653 54.3475 19.4319 56.0304C18.2985 57.7132 17.6928 59.696 17.6925 61.7249C17.6925 64.4293 18.7668 67.0229 20.6791 68.9352C22.5914 70.8475 25.185 71.9219 27.8894 71.9219C30.5938 71.9219 33.1875 70.8475 35.0997 68.9352C37.012 67.0229 38.0864 64.4293 38.0864 61.7249C38.0859 60.0836 37.6896 58.4666 36.9309 57.0111C36.1722 55.5556 35.0736 54.3047 33.7283 53.3644" stroke="#2D2D2D" stroke-width="2" stroke-linecap="round" stroke-linejoin="round"/>
<path d="M33.4387 36.4475L34.4387 31.2185L28.7703 29.895L29.9157 26.9053L25.4534 27.2027L24.3081 30.1924L20.4259 32.4681L15.6364 31.2185L13.6136 27.7677L13.5691 23.7368L10.3266 22.1601L10.3265 29.4476L13.3755 34.2826L18.4178 35.9634L33.4387 36.4475Z" fill="#009379"/>
<path d="M29.6927 23.5586L30.1686 27.3366L26.1377 27.3812L25.4388 23.4475L21.9388 20.4475L17.9388 19.9475L15.4388 21.9475L14.5062 24.3466L10.5795 22.5914L12.8404 19.5274L16.4388 15.9475L21.9388 15.4475L26.1377 17.9475L29.6927 23.5586Z" fill="#009379"/>
<path d="M27.8183 67.512C31.0287 67.512 33.6313 64.9095 33.6313 61.6991C33.6313 58.4887 31.0287 55.8861 27.8183 55.8861C24.6079 55.8861 22.0054 58.4887 22.0054 61.6991C22.0054 64.9095 24.6079 67.512 27.8183 67.512Z" stroke="#2D2D2D" stroke-width="2" stroke-linecap="round" stroke-linejoin="round"/>
<path d="M44.9145 33.9339L29.0081 30.5005" stroke="#2D2D2D" stroke-width="2" stroke-linecap="round" stroke-linejoin="round"/>
<path d="M46.6344 42.4043L78.6994 41.2274L54.232 35.9447" stroke="#2D2D2D" stroke-width="2" stroke-linecap="round" stroke-linejoin="round"/>
<path d="M20.7445 36.0223L42.5221 37.4061" stroke="#2D2D2D" stroke-width="2" stroke-linecap="round" stroke-linejoin="round"/>
<path d="M21.0031 36.029C18.9843 36.2447 16.947 35.8529 15.1523 34.9036C13.3575 33.9544 11.887 32.4911 10.929 30.701C10.2968 29.5208 9.90328 28.2275 9.77103 26.8952C9.63878 25.5629 9.77037 24.2176 10.1583 22.9362C10.5462 21.6547 11.1828 20.4623 12.0318 19.427C12.8808 18.3917 13.9254 17.5338 15.1061 16.9024C16.2864 16.2698 17.5797 15.8758 18.9123 15.743C20.2448 15.6102 21.5905 15.7412 22.8724 16.1285C24.1543 16.5158 25.3474 17.1517 26.3835 18.0001C27.4196 18.8485 28.2785 19.8927 28.9111 21.073C29.6848 22.5204 30.0981 24.133 30.1161 25.7741C30.1341 27.4152 29.7563 29.0365 29.0145 30.5005" stroke="#2D2D2D" stroke-width="2" stroke-linecap="round" stroke-linejoin="round"/>
<path d="M19.8716 31.7613C23.082 31.7613 25.6845 29.1587 25.6845 25.9483C25.6845 22.7379 23.082 20.1354 19.8716 20.1354C16.6611 20.1354 14.0586 22.7379 14.0586 25.9483C14.0586 29.1587 16.6611 31.7613 19.8716 31.7613Z" stroke="#2D2D2D" stroke-width="2" stroke-linecap="round" stroke-linejoin="round"/>
<path d="M48.1991 36.725C48.1986 36.725 48.1991 36.7252 48.2001 36.725C48.2012 36.7247 48.2029 36.7244 48.204 36.724C48.2058 36.7232 48.2067 36.7223 48.2069 36.722C48.2071 36.7218 48.208 36.721 48.2089 36.7191C48.2093 36.7181 48.2096 36.7163 48.2098 36.7152V36.7133C48.2096 36.7121 48.2093 36.7104 48.2089 36.7094C48.2081 36.7075 48.2071 36.7067 48.2069 36.7064C48.2066 36.7061 48.2058 36.7052 48.204 36.7045C48.2029 36.704 48.2012 36.7037 48.2001 36.7035C48.1991 36.7033 48.1986 36.7035 48.1991 36.7035M48.1991 36.725V36.7035M48.1991 36.725H48.1981C48.197 36.7247 48.1953 36.7244 48.1942 36.724C48.1924 36.7232 48.1915 36.7223 48.1913 36.722C48.191 36.7218 48.1901 36.7209 48.1893 36.7191C48.1889 36.7181 48.1886 36.7163 48.1884 36.7152V36.7133C48.1886 36.7121 48.1889 36.7104 48.1893 36.7094C48.1901 36.7075 48.1911 36.7067 48.1913 36.7064C48.1915 36.7062 48.1924 36.7053 48.1942 36.7045C48.1953 36.704 48.197 36.7037 48.1981 36.7035C48.1992 36.7033 48.1997 36.7035 48.1991 36.7035M48.1991 36.725V36.7035" fill="#2D2D2D" stroke="#2D2D2D" stroke-width="2"/>
</svg>
